# xmcd
# 
# Track frame offsets:
#     150
#     11042
#     23091
#     38989
#     53296
#     71348
#     88544
#     107517
#     121970
#     136628
# 
# Disc length: 2112
# 
# Revision: 4
# Processed by: cddbd v1.5.2PL0 Copyright (c) Steve Scherf et al.
# Submitted via: fre:ac v1.0.31
# 
DISCID=6e083e0a
DTITLE=Garth Brooks - Gunslinger
DYEAR=2016
DGENRE=Country
TTITLE0=Honky-Tonk Somewhere
TTITLE1=Weekend
TTITLE2=Ask Me How I Know
TTITLE3=Baby, Let's Lay Down And Dance
TTITLE4=He Really Loves You
TTITLE5=Pure Adrenaline
TTITLE6=Garth Brooks - Trisha Yearwood - Whiskey To Wine
TTITLE7=Bang! Bang!
TTITLE8=Cowboys And Friends
TTITLE9=8teen
EXTD=
EXTT0=
EXTT1=
EXTT2=
EXTT3=
EXTT4=
EXTT5=
EXTT6=
EXTT7=
EXTT8=
EXTT9=
PLAYORDER=
